<svg xmlns="http://www.w3.org/2000/svg" viewBox="0 0 1100 620" role="img" aria-label="Medical products hero scene">
  <defs>
    <linearGradient id="table" x1="0" x2="1">
      <stop stop-color="#f7fbff"/>
      <stop offset="1" stop-color="#d5eafd"/>
    </linearGradient>
    <linearGradient id="blueTube" x1="0" x2="1">
      <stop stop-color="#062b61"/>
      <stop offset="1" stop-color="#1f86d6"/>
    </linearGradient>
    <filter id="shadow" x="-20%" y="-20%" width="140%" height="140%">
      <feDropShadow dx="0" dy="18" stdDeviation="18" flood-color="#0b376f" flood-opacity=".24"/>
    </filter>
  </defs>
  <rect width="1100" height="620" fill="url(#table)"/>
  <g opacity=".38" fill="none" stroke="#87c8f8" stroke-width="4">
    <path d="M645 95h52l26 45-26 45h-52l-26-45z"/>
    <path d="M805 58h52l26 45-26 45h-52l-26-45z"/>
    <path d="M918 145h74l37 64-37 64h-74l-37-64z"/>
    <path d="M740 182h66l33 57-33 57h-66l-33-57z"/>
    <path d="M590 230h46l23 40-23 40h-46l-23-40z"/>
  </g>
  <g opacity=".32" fill="#83c7f7">
    <rect x="536" y="83" width="36" height="120" rx="6"/>
    <rect x="494" y="125" width="120" height="36" rx="6"/>
    <rect x="908" y="84" width="42" height="138" rx="8"/>
    <rect x="860" y="132" width="138" height="42" rx="8"/>
  </g>
  <g filter="url(#shadow)">
    <path d="M268 381c70-86 224-70 300-15 64 46 164 45 219 4" fill="none" stroke="url(#blueTube)" stroke-width="32" stroke-linecap="round"/>
    <path d="M292 428c90 64 216 34 262-36" fill="none" stroke="#103b77" stroke-width="24" stroke-linecap="round"/>
    <ellipse cx="435" cy="386" rx="82" ry="32" fill="#e9f3fd" stroke="#748da8" stroke-width="8"/>
    <ellipse cx="435" cy="386" rx="48" ry="16" fill="#ffffff" stroke="#a8bbcf" stroke-width="5"/>
    <circle cx="626" cy="417" r="50" fill="#d9eefa" stroke="#082a61" stroke-width="18"/>
    <circle cx="626" cy="417" r="26" fill="#ffffff"/>
    <path d="M766 410 1052 340" stroke="#8a9bae" stroke-width="18" stroke-linecap="round"/>
    <path d="M778 431 1068 375" stroke="#c3ccd7" stroke-width="10" stroke-linecap="round"/>
    <circle cx="1000" cy="325" r="44" fill="none" stroke="#8495a6" stroke-width="12"/>
    <circle cx="1060" cy="386" r="44" fill="none" stroke="#8495a6" stroke-width="12"/>
  </g>
  <g filter="url(#shadow)">
    <path d="M340 284h316l-52 132H388z" fill="#dff5ff" stroke="#85bce7" stroke-width="5"/>
    <path d="M367 306h254M359 334h251M351 362h247" stroke="#83c7f7" stroke-width="10" stroke-linecap="round"/>
    <path d="M345 286c70 24 140 22 210 0 23-7 57-8 101-2l-20 50c-114 10-213 6-300-12z" fill="#b7e5ff" opacity=".75"/>
  </g>
  <g filter="url(#shadow)">
    <rect x="848" y="236" width="86" height="172" rx="22" fill="#edf7ff" stroke="#b6c9dd" stroke-width="7"/>
    <rect x="864" y="198" width="54" height="50" rx="12" fill="#ffffff" stroke="#b6c9dd" stroke-width="7"/>
    <rect x="837" y="162" width="108" height="48" rx="12" fill="#ffffff" stroke="#b6c9dd" stroke-width="7"/>
    <path d="M868 282h46" stroke="#c1d5e8" stroke-width="9" stroke-linecap="round"/>
    <rect x="732" y="310" width="70" height="132" rx="18" fill="#eef9ff" stroke="#91a9bc" stroke-width="7"/>
    <rect x="718" y="285" width="98" height="34" rx="17" fill="#ffffff" stroke="#7890a7" stroke-width="7"/>
    <rect x="968" y="295" width="62" height="122" rx="16" fill="#ecf9ff" stroke="#94aabc" stroke-width="7"/>
    <rect x="962" y="271" width="74" height="28" rx="10" fill="#36a35d"/>
  </g>
</svg>
