<svg xmlns="http://www.w3.org/2000/svg" viewBox="0 0 640 480" role="img" aria-label="Infrared Thermometer">
  <defs>
    <linearGradient id="bg" x1="0" x2="1" y1="0" y2="1"><stop stop-color="#f2f8ff"/><stop offset="1" stop-color="#ffffff"/></linearGradient>
    <linearGradient id="accent" x1="0" x2="1"><stop stop-color="#315b90"/><stop offset="1" stop-color="#8cc9ff"/></linearGradient>
    <filter id="shadow" x="-20%" y="-20%" width="140%" height="140%"><feDropShadow dx="0" dy="18" stdDeviation="14" flood-color="#08224a" flood-opacity=".18"/></filter>
  </defs>
  <rect width="640" height="480" rx="28" fill="url(#bg)"/>
  <circle cx="520" cy="92" r="72" fill="#e1f0ff"/>
  <circle cx="106" cy="380" r="86" fill="#eaf4ff"/>
  <g opacity=".32" stroke="#9bd0fa" stroke-width="5" fill="none">
    <path d="M96 108h58l29 50-29 50H96l-29-50z"/>
    <path d="M470 280h78l39 68-39 68h-78l-39-68z"/>
  </g>
  <g filter="url(#shadow)">
    <rect x="180" y="118" width="280" height="205" rx="34" fill="#ffffff" stroke="#d0def0" stroke-width="8"/>
    <rect x="218" y="154" width="204" height="72" rx="16" fill="#edf7ff" stroke="#c5daf2" stroke-width="6"/>
    <path d="M250 191h47l18-30 38 76 22-46h42" fill="none" stroke="url(#accent)" stroke-width="13" stroke-linecap="round" stroke-linejoin="round"/>
    <circle cx="244" cy="270" r="22" fill="url(#accent)"/>
    <circle cx="320" cy="270" r="22" fill="url(#accent)" opacity=".86"/>
    <circle cx="396" cy="270" r="22" fill="url(#accent)" opacity=".72"/>
  </g>
  <path d="M210 364h220" stroke="#b5c9df" stroke-width="14" stroke-linecap="round"/>
  <text x="320" y="407" text-anchor="middle" font-family="Segoe UI, Arial, sans-serif" font-size="34" font-weight="800" fill="#08224a">Infrared Thermometer</text>
  <text x="320" y="440" text-anchor="middle" font-family="Segoe UI, Arial, sans-serif" font-size="22" font-weight="700" fill="#315b90">Diagnostics</text>
</svg>
